<?xml version="1.0" encoding="UTF-8"?>
<svg xmlns="http://www.w3.org/2000/svg" width="1200" height="1200" viewBox="0 0 1200 1200" role="img" aria-labelledby="title desc" data-target="https://gensahilsingh.vercel.app" data-error-correction="H" data-qr-modules="33" data-quiet-zone-modules="4">
  <title id="title">Sahil Singh portfolio QR code</title>
  <desc id="desc">Scan to visit gensahilsingh.vercel.app</desc>
  <rect width="1200" height="1200" fill="#f4efe5"/>
  <rect x="54" y="54" width="1092" height="1092" fill="none" stroke="#c76a3b" stroke-width="3"/>
  <text x="600" y="148" text-anchor="middle" fill="#22201d" font-family="Arial, Helvetica, sans-serif" font-size="28" font-weight="700" letter-spacing="7">SAHIL SINGH</text>
  <rect x="170" y="156" width="861" height="861" fill="#f4efe5"/>
  <g fill="#22201d" shape-rendering="crispEdges"><rect x="254" y="240" width="21" height="21"/><rect x="275" y="240" width="21" height="21"/><rect x="296" y="240" width="21" height="21"/><rect x="317" y="240" width="21" height="21"/><rect x="338" y="240" width="21" height="21"/><rect x="359" y="240" width="21" height="21"/><rect x="380" y="240" width="21" height="21"/><rect x="422" y="240" width="21" height="21"/><rect x="443" y="240" width="21" height="21"/><rect x="485" y="240" width="21" height="21"/><rect x="527" y="240" width="21" height="21"/><rect x="548" y="240" width="21" height="21"/><rect x="611" y="240" width="21" height="21"/><rect x="632" y="240" width="21" height="21"/><rect x="716" y="240" width="21" height="21"/><rect x="758" y="240" width="21" height="21"/><rect x="800" y="240" width="21" height="21"/><rect x="821" y="240" width="21" height="21"/><rect x="842" y="240" width="21" height="21"/><rect x="863" y="240" width="21" height="21"/><rect x="884" y="240" width="21" height="21"/><rect x="905" y="240" width="21" height="21"/><rect x="926" y="240" width="21" height="21"/><rect x="254" y="261" width="21" height="21"/><rect x="380" y="261" width="21" height="21"/><rect x="506" y="261" width="21" height="21"/><rect x="569" y="261" width="21" height="21"/><rect x="590" y="261" width="21" height="21"/><rect x="611" y="261" width="21" height="21"/><rect x="653" y="261" width="21" height="21"/><rect x="758" y="261" width="21" height="21"/><rect x="800" y="261" width="21" height="21"/><rect x="926" y="261" width="21" height="21"/><rect x="254" y="282" width="21" height="21"/><rect x="296" y="282" width="21" height="21"/><rect x="317" y="282" width="21" height="21"/><rect x="338" y="282" width="21" height="21"/><rect x="380" y="282" width="21" height="21"/><rect x="422" y="282" width="21" height="21"/><rect x="506" y="282" width="21" height="21"/><rect x="527" y="282" width="21" height="21"/><rect x="590" y="282" width="21" height="21"/><rect x="695" y="282" width="21" height="21"/><rect x="716" y="282" width="21" height="21"/><rect x="737" y="282" width="21" height="21"/><rect x="758" y="282" width="21" height="21"/><rect x="800" y="282" width="21" height="21"/><rect x="842" y="282" width="21" height="21"/><rect x="863" y="282" width="21" height="21"/><rect x="884" y="282" width="21" height="21"/><rect x="926" y="282" width="21" height="21"/><rect x="254" y="303" width="21" height="21"/><rect x="296" y="303" width="21" height="21"/><rect x="317" y="303" width="21" height="21"/><rect x="338" y="303" width="21" height="21"/><rect x="380" y="303" width="21" height="21"/><rect x="443" y="303" width="21" height="21"/><rect x="527" y="303" width="21" height="21"/><rect x="548" y="303" width="21" height="21"/><rect x="590" y="303" width="21" height="21"/><rect x="653" y="303" width="21" height="21"/><rect x="695" y="303" width="21" height="21"/><rect x="737" y="303" width="21" height="21"/><rect x="758" y="303" width="21" height="21"/><rect x="800" y="303" width="21" height="21"/><rect x="842" y="303" width="21" height="21"/><rect x="863" y="303" width="21" height="21"/><rect x="884" y="303" width="21" height="21"/><rect x="926" y="303" width="21" height="21"/><rect x="254" y="324" width="21" height="21"/><rect x="296" y="324" width="21" height="21"/><rect x="317" y="324" width="21" height="21"/><rect x="338" y="324" width="21" height="21"/><rect x="380" y="324" width="21" height="21"/><rect x="422" y="324" width="21" height="21"/><rect x="464" y="324" width="21" height="21"/><rect x="548" y="324" width="21" height="21"/><rect x="569" y="324" width="21" height="21"/><rect x="590" y="324" width="21" height="21"/><rect x="632" y="324" width="21" height="21"/><rect x="695" y="324" width="21" height="21"/><rect x="758" y="324" width="21" height="21"/><rect x="800" y="324" width="21" height="21"/><rect x="842" y="324" width="21" height="21"/><rect x="863" y="324" width="21" height="21"/><rect x="884" y="324" width="21" height="21"/><rect x="926" y="324" width="21" height="21"/><rect x="254" y="345" width="21" height="21"/><rect x="380" y="345" width="21" height="21"/><rect x="443" y="345" width="21" height="21"/><rect x="485" y="345" width="21" height="21"/><rect x="569" y="345" width="21" height="21"/><rect x="611" y="345" width="21" height="21"/><rect x="632" y="345" width="21" height="21"/><rect x="653" y="345" width="21" height="21"/><rect x="674" y="345" width="21" height="21"/><rect x="716" y="345" width="21" height="21"/><rect x="758" y="345" width="21" height="21"/><rect x="800" y="345" width="21" height="21"/><rect x="926" y="345" width="21" height="21"/><rect x="254" y="366" width="21" height="21"/><rect x="275" y="366" width="21" height="21"/><rect x="296" y="366" width="21" height="21"/><rect x="317" y="366" width="21" height="21"/><rect x="338" y="366" width="21" height="21"/><rect x="359" y="366" width="21" height="21"/><rect x="380" y="366" width="21" height="21"/><rect x="422" y="366" width="21" height="21"/><rect x="464" y="366" width="21" height="21"/><rect x="506" y="366" width="21" height="21"/><rect x="548" y="366" width="21" height="21"/><rect x="590" y="366" width="21" height="21"/><rect x="632" y="366" width="21" height="21"/><rect x="674" y="366" width="21" height="21"/><rect x="716" y="366" width="21" height="21"/><rect x="758" y="366" width="21" height="21"/><rect x="800" y="366" width="21" height="21"/><rect x="821" y="366" width="21" height="21"/><rect x="842" y="366" width="21" height="21"/><rect x="863" y="366" width="21" height="21"/><rect x="884" y="366" width="21" height="21"/><rect x="905" y="366" width="21" height="21"/><rect x="926" y="366" width="21" height="21"/><rect x="422" y="387" width="21" height="21"/><rect x="506" y="387" width="21" height="21"/><rect x="527" y="387" width="21" height="21"/><rect x="548" y="387" width="21" height="21"/><rect x="590" y="387" width="21" height="21"/><rect x="653" y="387" width="21" height="21"/><rect x="716" y="387" width="21" height="21"/><rect x="758" y="387" width="21" height="21"/><rect x="359" y="408" width="21" height="21"/><rect x="380" y="408" width="21" height="21"/><rect x="443" y="408" width="21" height="21"/><rect x="464" y="408" width="21" height="21"/><rect x="485" y="408" width="21" height="21"/><rect x="527" y="408" width="21" height="21"/><rect x="569" y="408" width="21" height="21"/><rect x="590" y="408" width="21" height="21"/><rect x="632" y="408" width="21" height="21"/><rect x="653" y="408" width="21" height="21"/><rect x="716" y="408" width="21" height="21"/><rect x="758" y="408" width="21" height="21"/><rect x="800" y="408" width="21" height="21"/><rect x="842" y="408" width="21" height="21"/><rect x="884" y="408" width="21" height="21"/><rect x="926" y="408" width="21" height="21"/><rect x="254" y="429" width="21" height="21"/><rect x="296" y="429" width="21" height="21"/><rect x="317" y="429" width="21" height="21"/><rect x="338" y="429" width="21" height="21"/><rect x="401" y="429" width="21" height="21"/><rect x="485" y="429" width="21" height="21"/><rect x="506" y="429" width="21" height="21"/><rect x="527" y="429" width="21" height="21"/><rect x="548" y="429" width="21" height="21"/><rect x="569" y="429" width="21" height="21"/><rect x="653" y="429" width="21" height="21"/><rect x="674" y="429" width="21" height="21"/><rect x="695" y="429" width="21" height="21"/><rect x="737" y="429" width="21" height="21"/><rect x="779" y="429" width="21" height="21"/><rect x="821" y="429" width="21" height="21"/><rect x="842" y="429" width="21" height="21"/><rect x="275" y="450" width="21" height="21"/><rect x="317" y="450" width="21" height="21"/><rect x="380" y="450" width="21" height="21"/><rect x="401" y="450" width="21" height="21"/><rect x="422" y="450" width="21" height="21"/><rect x="443" y="450" width="21" height="21"/><rect x="464" y="450" width="21" height="21"/><rect x="569" y="450" width="21" height="21"/><rect x="590" y="450" width="21" height="21"/><rect x="611" y="450" width="21" height="21"/><rect x="632" y="450" width="21" height="21"/><rect x="674" y="450" width="21" height="21"/><rect x="716" y="450" width="21" height="21"/><rect x="758" y="450" width="21" height="21"/><rect x="821" y="450" width="21" height="21"/><rect x="863" y="450" width="21" height="21"/><rect x="884" y="450" width="21" height="21"/><rect x="905" y="450" width="21" height="21"/><rect x="254" y="471" width="21" height="21"/><rect x="275" y="471" width="21" height="21"/><rect x="296" y="471" width="21" height="21"/><rect x="338" y="471" width="21" height="21"/><rect x="359" y="471" width="21" height="21"/><rect x="443" y="471" width="21" height="21"/><rect x="464" y="471" width="21" height="21"/><rect x="506" y="471" width="21" height="21"/><rect x="569" y="471" width="21" height="21"/><rect x="590" y="471" width="21" height="21"/><rect x="632" y="471" width="21" height="21"/><rect x="695" y="471" width="21" height="21"/><rect x="737" y="471" width="21" height="21"/><rect x="779" y="471" width="21" height="21"/><rect x="800" y="471" width="21" height="21"/><rect x="821" y="471" width="21" height="21"/><rect x="863" y="471" width="21" height="21"/><rect x="884" y="471" width="21" height="21"/><rect x="905" y="471" width="21" height="21"/><rect x="926" y="471" width="21" height="21"/><rect x="296" y="492" width="21" height="21"/><rect x="317" y="492" width="21" height="21"/><rect x="380" y="492" width="21" height="21"/><rect x="401" y="492" width="21" height="21"/><rect x="422" y="492" width="21" height="21"/><rect x="443" y="492" width="21" height="21"/><rect x="506" y="492" width="21" height="21"/><rect x="527" y="492" width="21" height="21"/><rect x="569" y="492" width="21" height="21"/><rect x="611" y="492" width="21" height="21"/><rect x="653" y="492" width="21" height="21"/><rect x="695" y="492" width="21" height="21"/><rect x="737" y="492" width="21" height="21"/><rect x="758" y="492" width="21" height="21"/><rect x="800" y="492" width="21" height="21"/><rect x="821" y="492" width="21" height="21"/><rect x="863" y="492" width="21" height="21"/><rect x="926" y="492" width="21" height="21"/><rect x="296" y="513" width="21" height="21"/><rect x="401" y="513" width="21" height="21"/><rect x="422" y="513" width="21" height="21"/><rect x="443" y="513" width="21" height="21"/><rect x="506" y="513" width="21" height="21"/><rect x="548" y="513" width="21" height="21"/><rect x="611" y="513" width="21" height="21"/><rect x="653" y="513" width="21" height="21"/><rect x="695" y="513" width="21" height="21"/><rect x="737" y="513" width="21" height="21"/><rect x="800" y="513" width="21" height="21"/><rect x="821" y="513" width="21" height="21"/><rect x="863" y="513" width="21" height="21"/><rect x="884" y="513" width="21" height="21"/><rect x="926" y="513" width="21" height="21"/><rect x="296" y="534" width="21" height="21"/><rect x="359" y="534" width="21" height="21"/><rect x="380" y="534" width="21" height="21"/><rect x="422" y="534" width="21" height="21"/><rect x="485" y="534" width="21" height="21"/><rect x="506" y="534" width="21" height="21"/><rect x="548" y="534" width="21" height="21"/><rect x="590" y="534" width="21" height="21"/><rect x="653" y="534" width="21" height="21"/><rect x="674" y="534" width="21" height="21"/><rect x="716" y="534" width="21" height="21"/><rect x="758" y="534" width="21" height="21"/><rect x="800" y="534" width="21" height="21"/><rect x="821" y="534" width="21" height="21"/><rect x="842" y="534" width="21" height="21"/><rect x="863" y="534" width="21" height="21"/><rect x="884" y="534" width="21" height="21"/><rect x="905" y="534" width="21" height="21"/><rect x="254" y="555" width="21" height="21"/><rect x="275" y="555" width="21" height="21"/><rect x="296" y="555" width="21" height="21"/><rect x="317" y="555" width="21" height="21"/><rect x="422" y="555" width="21" height="21"/><rect x="443" y="555" width="21" height="21"/><rect x="527" y="555" width="21" height="21"/><rect x="632" y="555" width="21" height="21"/><rect x="758" y="555" width="21" height="21"/><rect x="800" y="555" width="21" height="21"/><rect x="821" y="555" width="21" height="21"/><rect x="863" y="555" width="21" height="21"/><rect x="884" y="555" width="21" height="21"/><rect x="926" y="555" width="21" height="21"/><rect x="359" y="576" width="21" height="21"/><rect x="380" y="576" width="21" height="21"/><rect x="401" y="576" width="21" height="21"/><rect x="548" y="576" width="21" height="21"/><rect x="569" y="576" width="21" height="21"/><rect x="674" y="576" width="21" height="21"/><rect x="737" y="576" width="21" height="21"/><rect x="821" y="576" width="21" height="21"/><rect x="842" y="576" width="21" height="21"/><rect x="275" y="597" width="21" height="21"/><rect x="317" y="597" width="21" height="21"/><rect x="464" y="597" width="21" height="21"/><rect x="485" y="597" width="21" height="21"/><rect x="611" y="597" width="21" height="21"/><rect x="695" y="597" width="21" height="21"/><rect x="737" y="597" width="21" height="21"/><rect x="758" y="597" width="21" height="21"/><rect x="800" y="597" width="21" height="21"/><rect x="821" y="597" width="21" height="21"/><rect x="926" y="597" width="21" height="21"/><rect x="296" y="618" width="21" height="21"/><rect x="338" y="618" width="21" height="21"/><rect x="359" y="618" width="21" height="21"/><rect x="380" y="618" width="21" height="21"/><rect x="422" y="618" width="21" height="21"/><rect x="443" y="618" width="21" height="21"/><rect x="485" y="618" width="21" height="21"/><rect x="506" y="618" width="21" height="21"/><rect x="527" y="618" width="21" height="21"/><rect x="611" y="618" width="21" height="21"/><rect x="653" y="618" width="21" height="21"/><rect x="674" y="618" width="21" height="21"/><rect x="695" y="618" width="21" height="21"/><rect x="737" y="618" width="21" height="21"/><rect x="779" y="618" width="21" height="21"/><rect x="800" y="618" width="21" height="21"/><rect x="863" y="618" width="21" height="21"/><rect x="884" y="618" width="21" height="21"/><rect x="926" y="618" width="21" height="21"/><rect x="296" y="639" width="21" height="21"/><rect x="338" y="639" width="21" height="21"/><rect x="359" y="639" width="21" height="21"/><rect x="401" y="639" width="21" height="21"/><rect x="443" y="639" width="21" height="21"/><rect x="464" y="639" width="21" height="21"/><rect x="506" y="639" width="21" height="21"/><rect x="527" y="639" width="21" height="21"/><rect x="548" y="639" width="21" height="21"/><rect x="569" y="639" width="21" height="21"/><rect x="632" y="639" width="21" height="21"/><rect x="653" y="639" width="21" height="21"/><rect x="737" y="639" width="21" height="21"/><rect x="758" y="639" width="21" height="21"/><rect x="779" y="639" width="21" height="21"/><rect x="821" y="639" width="21" height="21"/><rect x="863" y="639" width="21" height="21"/><rect x="884" y="639" width="21" height="21"/><rect x="905" y="639" width="21" height="21"/><rect x="926" y="639" width="21" height="21"/><rect x="317" y="660" width="21" height="21"/><rect x="359" y="660" width="21" height="21"/><rect x="380" y="660" width="21" height="21"/><rect x="401" y="660" width="21" height="21"/><rect x="443" y="660" width="21" height="21"/><rect x="548" y="660" width="21" height="21"/><rect x="716" y="660" width="21" height="21"/><rect x="779" y="660" width="21" height="21"/><rect x="842" y="660" width="21" height="21"/><rect x="863" y="660" width="21" height="21"/><rect x="254" y="681" width="21" height="21"/><rect x="296" y="681" width="21" height="21"/><rect x="443" y="681" width="21" height="21"/><rect x="485" y="681" width="21" height="21"/><rect x="506" y="681" width="21" height="21"/><rect x="569" y="681" width="21" height="21"/><rect x="611" y="681" width="21" height="21"/><rect x="632" y="681" width="21" height="21"/><rect x="674" y="681" width="21" height="21"/><rect x="737" y="681" width="21" height="21"/><rect x="779" y="681" width="21" height="21"/><rect x="821" y="681" width="21" height="21"/><rect x="842" y="681" width="21" height="21"/><rect x="863" y="681" width="21" height="21"/><rect x="884" y="681" width="21" height="21"/><rect x="254" y="702" width="21" height="21"/><rect x="338" y="702" width="21" height="21"/><rect x="359" y="702" width="21" height="21"/><rect x="380" y="702" width="21" height="21"/><rect x="401" y="702" width="21" height="21"/><rect x="422" y="702" width="21" height="21"/><rect x="506" y="702" width="21" height="21"/><rect x="527" y="702" width="21" height="21"/><rect x="548" y="702" width="21" height="21"/><rect x="758" y="702" width="21" height="21"/><rect x="821" y="702" width="21" height="21"/><rect x="842" y="702" width="21" height="21"/><rect x="863" y="702" width="21" height="21"/><rect x="884" y="702" width="21" height="21"/><rect x="905" y="702" width="21" height="21"/><rect x="254" y="723" width="21" height="21"/><rect x="317" y="723" width="21" height="21"/><rect x="359" y="723" width="21" height="21"/><rect x="401" y="723" width="21" height="21"/><rect x="422" y="723" width="21" height="21"/><rect x="443" y="723" width="21" height="21"/><rect x="464" y="723" width="21" height="21"/><rect x="527" y="723" width="21" height="21"/><rect x="548" y="723" width="21" height="21"/><rect x="590" y="723" width="21" height="21"/><rect x="611" y="723" width="21" height="21"/><rect x="632" y="723" width="21" height="21"/><rect x="653" y="723" width="21" height="21"/><rect x="758" y="723" width="21" height="21"/><rect x="821" y="723" width="21" height="21"/><rect x="842" y="723" width="21" height="21"/><rect x="863" y="723" width="21" height="21"/><rect x="884" y="723" width="21" height="21"/><rect x="905" y="723" width="21" height="21"/><rect x="926" y="723" width="21" height="21"/><rect x="254" y="744" width="21" height="21"/><rect x="275" y="744" width="21" height="21"/><rect x="296" y="744" width="21" height="21"/><rect x="317" y="744" width="21" height="21"/><rect x="338" y="744" width="21" height="21"/><rect x="380" y="744" width="21" height="21"/><rect x="401" y="744" width="21" height="21"/><rect x="422" y="744" width="21" height="21"/><rect x="443" y="744" width="21" height="21"/><rect x="485" y="744" width="21" height="21"/><rect x="506" y="744" width="21" height="21"/><rect x="611" y="744" width="21" height="21"/><rect x="737" y="744" width="21" height="21"/><rect x="758" y="744" width="21" height="21"/><rect x="779" y="744" width="21" height="21"/><rect x="800" y="744" width="21" height="21"/><rect x="821" y="744" width="21" height="21"/><rect x="842" y="744" width="21" height="21"/><rect x="863" y="744" width="21" height="21"/><rect x="905" y="744" width="21" height="21"/><rect x="926" y="744" width="21" height="21"/><rect x="422" y="765" width="21" height="21"/><rect x="443" y="765" width="21" height="21"/><rect x="506" y="765" width="21" height="21"/><rect x="527" y="765" width="21" height="21"/><rect x="548" y="765" width="21" height="21"/><rect x="653" y="765" width="21" height="21"/><rect x="674" y="765" width="21" height="21"/><rect x="737" y="765" width="21" height="21"/><rect x="758" y="765" width="21" height="21"/><rect x="842" y="765" width="21" height="21"/><rect x="863" y="765" width="21" height="21"/><rect x="926" y="765" width="21" height="21"/><rect x="254" y="786" width="21" height="21"/><rect x="275" y="786" width="21" height="21"/><rect x="296" y="786" width="21" height="21"/><rect x="317" y="786" width="21" height="21"/><rect x="338" y="786" width="21" height="21"/><rect x="359" y="786" width="21" height="21"/><rect x="380" y="786" width="21" height="21"/><rect x="443" y="786" width="21" height="21"/><rect x="506" y="786" width="21" height="21"/><rect x="611" y="786" width="21" height="21"/><rect x="632" y="786" width="21" height="21"/><rect x="653" y="786" width="21" height="21"/><rect x="674" y="786" width="21" height="21"/><rect x="695" y="786" width="21" height="21"/><rect x="737" y="786" width="21" height="21"/><rect x="758" y="786" width="21" height="21"/><rect x="800" y="786" width="21" height="21"/><rect x="842" y="786" width="21" height="21"/><rect x="905" y="786" width="21" height="21"/><rect x="254" y="807" width="21" height="21"/><rect x="380" y="807" width="21" height="21"/><rect x="422" y="807" width="21" height="21"/><rect x="485" y="807" width="21" height="21"/><rect x="548" y="807" width="21" height="21"/><rect x="569" y="807" width="21" height="21"/><rect x="611" y="807" width="21" height="21"/><rect x="737" y="807" width="21" height="21"/><rect x="758" y="807" width="21" height="21"/><rect x="842" y="807" width="21" height="21"/><rect x="863" y="807" width="21" height="21"/><rect x="884" y="807" width="21" height="21"/><rect x="905" y="807" width="21" height="21"/><rect x="254" y="828" width="21" height="21"/><rect x="296" y="828" width="21" height="21"/><rect x="317" y="828" width="21" height="21"/><rect x="338" y="828" width="21" height="21"/><rect x="380" y="828" width="21" height="21"/><rect x="443" y="828" width="21" height="21"/><rect x="485" y="828" width="21" height="21"/><rect x="506" y="828" width="21" height="21"/><rect x="548" y="828" width="21" height="21"/><rect x="569" y="828" width="21" height="21"/><rect x="611" y="828" width="21" height="21"/><rect x="653" y="828" width="21" height="21"/><rect x="695" y="828" width="21" height="21"/><rect x="758" y="828" width="21" height="21"/><rect x="779" y="828" width="21" height="21"/><rect x="800" y="828" width="21" height="21"/><rect x="821" y="828" width="21" height="21"/><rect x="842" y="828" width="21" height="21"/><rect x="905" y="828" width="21" height="21"/><rect x="926" y="828" width="21" height="21"/><rect x="254" y="849" width="21" height="21"/><rect x="296" y="849" width="21" height="21"/><rect x="317" y="849" width="21" height="21"/><rect x="338" y="849" width="21" height="21"/><rect x="380" y="849" width="21" height="21"/><rect x="443" y="849" width="21" height="21"/><rect x="464" y="849" width="21" height="21"/><rect x="548" y="849" width="21" height="21"/><rect x="590" y="849" width="21" height="21"/><rect x="611" y="849" width="21" height="21"/><rect x="632" y="849" width="21" height="21"/><rect x="716" y="849" width="21" height="21"/><rect x="779" y="849" width="21" height="21"/><rect x="821" y="849" width="21" height="21"/><rect x="842" y="849" width="21" height="21"/><rect x="863" y="849" width="21" height="21"/><rect x="926" y="849" width="21" height="21"/><rect x="254" y="870" width="21" height="21"/><rect x="296" y="870" width="21" height="21"/><rect x="317" y="870" width="21" height="21"/><rect x="338" y="870" width="21" height="21"/><rect x="380" y="870" width="21" height="21"/><rect x="443" y="870" width="21" height="21"/><rect x="485" y="870" width="21" height="21"/><rect x="590" y="870" width="21" height="21"/><rect x="611" y="870" width="21" height="21"/><rect x="653" y="870" width="21" height="21"/><rect x="674" y="870" width="21" height="21"/><rect x="695" y="870" width="21" height="21"/><rect x="842" y="870" width="21" height="21"/><rect x="863" y="870" width="21" height="21"/><rect x="884" y="870" width="21" height="21"/><rect x="905" y="870" width="21" height="21"/><rect x="926" y="870" width="21" height="21"/><rect x="254" y="891" width="21" height="21"/><rect x="380" y="891" width="21" height="21"/><rect x="443" y="891" width="21" height="21"/><rect x="485" y="891" width="21" height="21"/><rect x="506" y="891" width="21" height="21"/><rect x="569" y="891" width="21" height="21"/><rect x="590" y="891" width="21" height="21"/><rect x="611" y="891" width="21" height="21"/><rect x="653" y="891" width="21" height="21"/><rect x="716" y="891" width="21" height="21"/><rect x="884" y="891" width="21" height="21"/><rect x="254" y="912" width="21" height="21"/><rect x="275" y="912" width="21" height="21"/><rect x="296" y="912" width="21" height="21"/><rect x="317" y="912" width="21" height="21"/><rect x="338" y="912" width="21" height="21"/><rect x="359" y="912" width="21" height="21"/><rect x="380" y="912" width="21" height="21"/><rect x="443" y="912" width="21" height="21"/><rect x="464" y="912" width="21" height="21"/><rect x="527" y="912" width="21" height="21"/><rect x="569" y="912" width="21" height="21"/><rect x="590" y="912" width="21" height="21"/><rect x="611" y="912" width="21" height="21"/><rect x="695" y="912" width="21" height="21"/><rect x="737" y="912" width="21" height="21"/><rect x="758" y="912" width="21" height="21"/><rect x="779" y="912" width="21" height="21"/><rect x="905" y="912" width="21" height="21"/></g>
  <text x="600" y="1024" text-anchor="middle" fill="#c76a3b" font-family="Arial, Helvetica, sans-serif" font-size="24" font-weight="700" letter-spacing="4">SCAN TO VIEW PORTFOLIO</text>
  <text x="600" y="1070" text-anchor="middle" fill="#22201d" font-family="Arial, Helvetica, sans-serif" font-size="25" letter-spacing="1.5">gensahilsingh.vercel.app</text>
</svg>
